<mxfile modified="2020-09-04T01:03:41.512Z" host="app.diagrams.net" agent="5.0 (Macintosh; Intel Mac OS X 10_15_6) AppleWebKit/537.36 (KHTML, like Gecko) Chrome/85.0.4183.83 Safari/537.36" etag="LbDTpUIvvkW27GecO9td" version="13.6.6" type="github" pages="2">
  <diagram id="xGGUFbsOLoyS068tVTB8" name="Page-2">
    <mxGraphModel dx="1298" dy="762" grid="1" gridSize="10" guides="1" tooltips="1" connect="1" arrows="1" fold="1" page="1" pageScale="1" pageWidth="1100" pageHeight="850" math="0" shadow="0">
      <root>
        <mxCell id="WpvXGuL6eG4n0Ecaszn3-0" />
        <mxCell id="WpvXGuL6eG4n0Ecaszn3-1" parent="WpvXGuL6eG4n0Ecaszn3-0" />
        <mxCell id="KsUBee0An4PpvsD4i31I-0" value="req, res, next" style="endArrow=classic;html=1;" parent="WpvXGuL6eG4n0Ecaszn3-1" target="KsUBee0An4PpvsD4i31I-2" edge="1">
          <mxGeometry width="50" height="50" relative="1" as="geometry">
            <mxPoint x="170" y="320" as="sourcePoint" />
            <mxPoint x="250" y="320" as="targetPoint" />
          </mxGeometry>
        </mxCell>
        <mxCell id="KsUBee0An4PpvsD4i31I-1" value="next()&lt;br&gt;req, res, next" style="edgeStyle=orthogonalEdgeStyle;rounded=0;orthogonalLoop=1;jettySize=auto;html=1;" parent="WpvXGuL6eG4n0Ecaszn3-1" source="KsUBee0An4PpvsD4i31I-2" target="KsUBee0An4PpvsD4i31I-4" edge="1">
          <mxGeometry relative="1" as="geometry" />
        </mxCell>
        <mxCell id="KsUBee0An4PpvsD4i31I-2" value="middleware&lt;br&gt;method" style="rounded=1;whiteSpace=wrap;html=1;" parent="WpvXGuL6eG4n0Ecaszn3-1" vertex="1">
          <mxGeometry x="270" y="290" width="100" height="60" as="geometry" />
        </mxCell>
        <mxCell id="KsUBee0An4PpvsD4i31I-3" value="next()&lt;br&gt;req, res, next" style="edgeStyle=orthogonalEdgeStyle;rounded=0;orthogonalLoop=1;jettySize=auto;html=1;" parent="WpvXGuL6eG4n0Ecaszn3-1" source="KsUBee0An4PpvsD4i31I-4" target="KsUBee0An4PpvsD4i31I-6" edge="1">
          <mxGeometry relative="1" as="geometry" />
        </mxCell>
        <mxCell id="KsUBee0An4PpvsD4i31I-4" value="middleware&lt;br&gt;method" style="rounded=1;whiteSpace=wrap;html=1;" parent="WpvXGuL6eG4n0Ecaszn3-1" vertex="1">
          <mxGeometry x="486" y="290" width="100" height="60" as="geometry" />
        </mxCell>
        <mxCell id="KsUBee0An4PpvsD4i31I-5" value="next()&lt;br&gt;req, res, next" style="edgeStyle=orthogonalEdgeStyle;rounded=0;orthogonalLoop=1;jettySize=auto;html=1;" parent="WpvXGuL6eG4n0Ecaszn3-1" source="KsUBee0An4PpvsD4i31I-6" target="KsUBee0An4PpvsD4i31I-7" edge="1">
          <mxGeometry relative="1" as="geometry" />
        </mxCell>
        <mxCell id="KsUBee0An4PpvsD4i31I-6" value="middleware&lt;br&gt;ERROR method" style="rounded=1;whiteSpace=wrap;html=1;" parent="WpvXGuL6eG4n0Ecaszn3-1" vertex="1">
          <mxGeometry x="712" y="290" width="100" height="60" as="geometry" />
        </mxCell>
        <mxCell id="KsUBee0An4PpvsD4i31I-7" value="middleware&lt;br&gt;method" style="rounded=1;whiteSpace=wrap;html=1;" parent="WpvXGuL6eG4n0Ecaszn3-1" vertex="1">
          <mxGeometry x="928" y="290" width="100" height="60" as="geometry" />
        </mxCell>
        <mxCell id="KsUBee0An4PpvsD4i31I-8" value="res&lt;br&gt;send(), json()" style="endArrow=classic;html=1;exitX=0.75;exitY=1;exitDx=0;exitDy=0;" parent="WpvXGuL6eG4n0Ecaszn3-1" source="KsUBee0An4PpvsD4i31I-2" edge="1">
          <mxGeometry width="50" height="50" relative="1" as="geometry">
            <mxPoint x="160" y="420" as="sourcePoint" />
            <mxPoint x="345" y="440" as="targetPoint" />
          </mxGeometry>
        </mxCell>
        <mxCell id="KsUBee0An4PpvsD4i31I-9" value="res&lt;br&gt;send(), json()" style="endArrow=classic;html=1;exitX=0.75;exitY=1;exitDx=0;exitDy=0;" parent="WpvXGuL6eG4n0Ecaszn3-1" source="KsUBee0An4PpvsD4i31I-4" target="KsUBee0An4PpvsD4i31I-13" edge="1">
          <mxGeometry width="50" height="50" relative="1" as="geometry">
            <mxPoint x="355" y="360" as="sourcePoint" />
            <mxPoint x="525" y="440" as="targetPoint" />
          </mxGeometry>
        </mxCell>
        <mxCell id="KsUBee0An4PpvsD4i31I-10" value="res&lt;br&gt;send(), json()" style="endArrow=classic;html=1;exitX=0.75;exitY=1;exitDx=0;exitDy=0;" parent="WpvXGuL6eG4n0Ecaszn3-1" source="KsUBee0An4PpvsD4i31I-6" target="KsUBee0An4PpvsD4i31I-14" edge="1">
          <mxGeometry width="50" height="50" relative="1" as="geometry">
            <mxPoint x="365" y="370" as="sourcePoint" />
            <mxPoint x="705" y="440" as="targetPoint" />
          </mxGeometry>
        </mxCell>
        <mxCell id="KsUBee0An4PpvsD4i31I-11" value="res&lt;br&gt;send(), json()" style="endArrow=classic;html=1;exitX=0.75;exitY=1;exitDx=0;exitDy=0;" parent="WpvXGuL6eG4n0Ecaszn3-1" source="KsUBee0An4PpvsD4i31I-7" target="KsUBee0An4PpvsD4i31I-15" edge="1">
          <mxGeometry width="50" height="50" relative="1" as="geometry">
            <mxPoint x="375" y="380" as="sourcePoint" />
            <mxPoint x="885" y="440" as="targetPoint" />
          </mxGeometry>
        </mxCell>
        <mxCell id="KsUBee0An4PpvsD4i31I-12" value="Internet" style="shadow=0;dashed=0;html=1;strokeColor=none;shape=mxgraph.mscae.enterprise.internet;fillColor=#00188D;align=center;labelPosition=center;verticalLabelPosition=bottom;verticalAlign=top;" parent="WpvXGuL6eG4n0Ecaszn3-1" vertex="1">
          <mxGeometry x="290" y="444.00000000000006" width="108" height="68" as="geometry" />
        </mxCell>
        <mxCell id="KsUBee0An4PpvsD4i31I-13" value="Internet" style="shadow=0;dashed=0;html=1;strokeColor=none;shape=mxgraph.mscae.enterprise.internet;fillColor=#00188D;align=center;labelPosition=center;verticalLabelPosition=bottom;verticalAlign=top;" parent="WpvXGuL6eG4n0Ecaszn3-1" vertex="1">
          <mxGeometry x="506" y="444.00000000000006" width="108" height="68" as="geometry" />
        </mxCell>
        <mxCell id="KsUBee0An4PpvsD4i31I-14" value="Internet" style="shadow=0;dashed=0;html=1;strokeColor=none;shape=mxgraph.mscae.enterprise.internet;fillColor=#00188D;align=center;labelPosition=center;verticalLabelPosition=bottom;verticalAlign=top;" parent="WpvXGuL6eG4n0Ecaszn3-1" vertex="1">
          <mxGeometry x="732" y="444.00000000000006" width="108" height="68" as="geometry" />
        </mxCell>
        <mxCell id="KsUBee0An4PpvsD4i31I-15" value="Internet" style="shadow=0;dashed=0;html=1;strokeColor=none;shape=mxgraph.mscae.enterprise.internet;fillColor=#00188D;align=center;labelPosition=center;verticalLabelPosition=bottom;verticalAlign=top;" parent="WpvXGuL6eG4n0Ecaszn3-1" vertex="1">
          <mxGeometry x="948" y="444.00000000000006" width="108" height="68" as="geometry" />
        </mxCell>
        <mxCell id="KsUBee0An4PpvsD4i31I-16" value="Internet" style="shadow=0;dashed=0;html=1;strokeColor=none;shape=mxgraph.mscae.enterprise.internet;fillColor=#00188D;align=center;labelPosition=center;verticalLabelPosition=bottom;verticalAlign=top;" parent="WpvXGuL6eG4n0Ecaszn3-1" vertex="1">
          <mxGeometry x="60" y="290.00000000000006" width="108" height="68" as="geometry" />
        </mxCell>
        <mxCell id="R6qIgAeARZU4BfMvla32-0" value="METHOD:&lt;br&gt;URL:&lt;br&gt;Error?" style="whiteSpace=wrap;html=1;aspect=fixed;align=left;" parent="WpvXGuL6eG4n0Ecaszn3-1" vertex="1">
          <mxGeometry x="292.5" y="223" width="56" height="56" as="geometry" />
        </mxCell>
        <mxCell id="R6qIgAeARZU4BfMvla32-1" value="METHOD:&lt;br&gt;URL:&lt;br&gt;Error?" style="whiteSpace=wrap;html=1;aspect=fixed;align=left;" parent="WpvXGuL6eG4n0Ecaszn3-1" vertex="1">
          <mxGeometry x="512.5" y="223" width="56" height="56" as="geometry" />
        </mxCell>
        <mxCell id="R6qIgAeARZU4BfMvla32-2" value="METHOD:&lt;br&gt;URL:&lt;br&gt;Error?" style="whiteSpace=wrap;html=1;aspect=fixed;align=left;" parent="WpvXGuL6eG4n0Ecaszn3-1" vertex="1">
          <mxGeometry x="738.5" y="223" width="56" height="56" as="geometry" />
        </mxCell>
        <mxCell id="R6qIgAeARZU4BfMvla32-3" value="METHOD:&lt;br&gt;URL:&lt;br&gt;Error?" style="whiteSpace=wrap;html=1;aspect=fixed;align=left;" parent="WpvXGuL6eG4n0Ecaszn3-1" vertex="1">
          <mxGeometry x="954.5" y="225" width="56" height="56" as="geometry" />
        </mxCell>
      </root>
    </mxGraphModel>
  </diagram>
  <diagram id="xfdPfUZH5vLJ2kTz__Rk" name="Page-1">
    <mxGraphModel dx="1298" dy="762" grid="1" gridSize="10" guides="1" tooltips="1" connect="1" arrows="1" fold="1" page="1" pageScale="1" pageWidth="1100" pageHeight="850" math="0" shadow="0">
      <root>
        <mxCell id="0" />
        <mxCell id="1" parent="0" />
        <mxCell id="VAZJaYTLyo-TRb7evhht-1" value="req, res, next" style="endArrow=classic;html=1;" parent="1" target="VAZJaYTLyo-TRb7evhht-2" edge="1">
          <mxGeometry width="50" height="50" relative="1" as="geometry">
            <mxPoint x="176" y="160" as="sourcePoint" />
            <mxPoint x="256" y="160" as="targetPoint" />
          </mxGeometry>
        </mxCell>
        <mxCell id="VAZJaYTLyo-TRb7evhht-4" value="next()&lt;br&gt;req, res, next" style="edgeStyle=orthogonalEdgeStyle;rounded=0;orthogonalLoop=1;jettySize=auto;html=1;" parent="1" source="VAZJaYTLyo-TRb7evhht-2" target="VAZJaYTLyo-TRb7evhht-3" edge="1">
          <mxGeometry relative="1" as="geometry" />
        </mxCell>
        <mxCell id="VAZJaYTLyo-TRb7evhht-2" value="middleware&lt;br&gt;method" style="rounded=1;whiteSpace=wrap;html=1;" parent="1" vertex="1">
          <mxGeometry x="276" y="130" width="100" height="59" as="geometry" />
        </mxCell>
        <mxCell id="VAZJaYTLyo-TRb7evhht-6" value="next()&lt;br&gt;req, res, next" style="edgeStyle=orthogonalEdgeStyle;rounded=0;orthogonalLoop=1;jettySize=auto;html=1;" parent="1" source="VAZJaYTLyo-TRb7evhht-3" target="VAZJaYTLyo-TRb7evhht-5" edge="1">
          <mxGeometry relative="1" as="geometry" />
        </mxCell>
        <mxCell id="VAZJaYTLyo-TRb7evhht-3" value="middleware&lt;br&gt;method" style="rounded=1;whiteSpace=wrap;html=1;" parent="1" vertex="1">
          <mxGeometry x="492" y="130" width="100" height="59" as="geometry" />
        </mxCell>
        <mxCell id="VAZJaYTLyo-TRb7evhht-8" value="next()&lt;br&gt;req, res, next" style="edgeStyle=orthogonalEdgeStyle;rounded=0;orthogonalLoop=1;jettySize=auto;html=1;" parent="1" source="VAZJaYTLyo-TRb7evhht-5" target="VAZJaYTLyo-TRb7evhht-7" edge="1">
          <mxGeometry relative="1" as="geometry" />
        </mxCell>
        <mxCell id="VAZJaYTLyo-TRb7evhht-5" value="middleware&lt;br&gt;method" style="rounded=1;whiteSpace=wrap;html=1;" parent="1" vertex="1">
          <mxGeometry x="718" y="130" width="100" height="59" as="geometry" />
        </mxCell>
        <mxCell id="VAZJaYTLyo-TRb7evhht-7" value="middleware&lt;br&gt;method" style="rounded=1;whiteSpace=wrap;html=1;" parent="1" vertex="1">
          <mxGeometry x="934" y="130" width="100" height="59" as="geometry" />
        </mxCell>
        <mxCell id="VAZJaYTLyo-TRb7evhht-10" value="res&lt;br&gt;send(), json()" style="endArrow=classic;html=1;exitX=0.75;exitY=1;exitDx=0;exitDy=0;" parent="1" source="VAZJaYTLyo-TRb7evhht-2" edge="1">
          <mxGeometry width="50" height="50" relative="1" as="geometry">
            <mxPoint x="166" y="260" as="sourcePoint" />
            <mxPoint x="351.5" y="290" as="targetPoint" />
          </mxGeometry>
        </mxCell>
        <mxCell id="VAZJaYTLyo-TRb7evhht-11" value="res&lt;br&gt;send(), json()" style="endArrow=classic;html=1;exitX=0.75;exitY=1;exitDx=0;exitDy=0;" parent="1" source="VAZJaYTLyo-TRb7evhht-3" edge="1">
          <mxGeometry width="50" height="50" relative="1" as="geometry">
            <mxPoint x="361" y="200" as="sourcePoint" />
            <mxPoint x="566.5" y="290" as="targetPoint" />
          </mxGeometry>
        </mxCell>
        <mxCell id="VAZJaYTLyo-TRb7evhht-12" value="res&lt;br&gt;send(), json()" style="endArrow=classic;html=1;exitX=0.75;exitY=1;exitDx=0;exitDy=0;" parent="1" source="VAZJaYTLyo-TRb7evhht-5" edge="1">
          <mxGeometry width="50" height="50" relative="1" as="geometry">
            <mxPoint x="371" y="210" as="sourcePoint" />
            <mxPoint x="792.5" y="290" as="targetPoint" />
          </mxGeometry>
        </mxCell>
        <mxCell id="VAZJaYTLyo-TRb7evhht-13" value="res&lt;br&gt;send(), json()" style="endArrow=classic;html=1;exitX=0.75;exitY=1;exitDx=0;exitDy=0;" parent="1" source="VAZJaYTLyo-TRb7evhht-7" edge="1">
          <mxGeometry width="50" height="50" relative="1" as="geometry">
            <mxPoint x="381" y="220" as="sourcePoint" />
            <mxPoint x="1008.265625" y="284" as="targetPoint" />
          </mxGeometry>
        </mxCell>
        <mxCell id="7LSt0xG8JGpei_P14OA7-5" value="Internet" style="shadow=0;dashed=0;html=1;strokeColor=none;shape=mxgraph.mscae.enterprise.internet;fillColor=#00188D;align=center;labelPosition=center;verticalLabelPosition=bottom;verticalAlign=top;" parent="1" vertex="1">
          <mxGeometry x="66" y="130.00000000000006" width="108" height="67" as="geometry" />
        </mxCell>
        <mxCell id="mTvhhc63JlK8sjDjgllF-1" value="METHOD:&lt;br&gt;URL:" style="whiteSpace=wrap;html=1;aspect=fixed;align=left;" parent="1" vertex="1">
          <mxGeometry x="294" y="60" width="56" height="55" as="geometry" />
        </mxCell>
        <mxCell id="mTvhhc63JlK8sjDjgllF-2" value="METHOD:&lt;br&gt;URL:" style="whiteSpace=wrap;html=1;aspect=fixed;align=left;" parent="1" vertex="1">
          <mxGeometry x="514" y="60" width="56" height="55" as="geometry" />
        </mxCell>
        <mxCell id="mTvhhc63JlK8sjDjgllF-3" value="METHOD:&lt;br&gt;URL:" style="whiteSpace=wrap;html=1;aspect=fixed;align=left;" parent="1" vertex="1">
          <mxGeometry x="740" y="60" width="56" height="55" as="geometry" />
        </mxCell>
        <mxCell id="mTvhhc63JlK8sjDjgllF-4" value="METHOD:&lt;br&gt;URL:" style="whiteSpace=wrap;html=1;aspect=fixed;align=left;" parent="1" vertex="1">
          <mxGeometry x="956" y="62" width="56" height="55" as="geometry" />
        </mxCell>
        <mxCell id="nFWLGI8USRD-Fi9ta-_A-1" value="" style="endArrow=classic;html=1;exitX=0.75;exitY=1;exitDx=0;exitDy=0;" parent="1" source="VAZJaYTLyo-TRb7evhht-7" target="7LSt0xG8JGpei_P14OA7-5" edge="1">
          <mxGeometry width="50" height="50" relative="1" as="geometry">
            <mxPoint x="1012.5" y="280" as="sourcePoint" />
            <mxPoint x="142.5" y="390" as="targetPoint" />
            <Array as="points">
              <mxPoint x="1009.5" y="290" />
              <mxPoint x="120.5" y="290" />
            </Array>
          </mxGeometry>
        </mxCell>
        <mxCell id="a7GYGJ2djlalggjTifqG-1" value="req, res, next" style="endArrow=classic;html=1;" parent="1" target="a7GYGJ2djlalggjTifqG-3" edge="1">
          <mxGeometry width="50" height="50" relative="1" as="geometry">
            <mxPoint x="176" y="470" as="sourcePoint" />
            <mxPoint x="256" y="470" as="targetPoint" />
          </mxGeometry>
        </mxCell>
        <mxCell id="a7GYGJ2djlalggjTifqG-2" value="next()&lt;br&gt;req, res, next" style="edgeStyle=orthogonalEdgeStyle;rounded=0;orthogonalLoop=1;jettySize=auto;html=1;" parent="1" source="a7GYGJ2djlalggjTifqG-3" target="a7GYGJ2djlalggjTifqG-5" edge="1">
          <mxGeometry relative="1" as="geometry" />
        </mxCell>
        <mxCell id="a7GYGJ2djlalggjTifqG-3" value="Router" style="rounded=1;whiteSpace=wrap;html=1;" parent="1" vertex="1">
          <mxGeometry x="276" y="440" width="100" height="59" as="geometry" />
        </mxCell>
        <mxCell id="a7GYGJ2djlalggjTifqG-4" value="next()&lt;br&gt;req, res, next" style="edgeStyle=orthogonalEdgeStyle;rounded=0;orthogonalLoop=1;jettySize=auto;html=1;" parent="1" source="a7GYGJ2djlalggjTifqG-5" target="a7GYGJ2djlalggjTifqG-7" edge="1">
          <mxGeometry relative="1" as="geometry" />
        </mxCell>
        <mxCell id="a7GYGJ2djlalggjTifqG-5" value="middleware&lt;br&gt;method" style="rounded=1;whiteSpace=wrap;html=1;" parent="1" vertex="1">
          <mxGeometry x="492" y="440" width="100" height="59" as="geometry" />
        </mxCell>
        <mxCell id="a7GYGJ2djlalggjTifqG-6" value="next()&lt;br&gt;req, res, next" style="edgeStyle=orthogonalEdgeStyle;rounded=0;orthogonalLoop=1;jettySize=auto;html=1;" parent="1" source="a7GYGJ2djlalggjTifqG-7" target="a7GYGJ2djlalggjTifqG-8" edge="1">
          <mxGeometry relative="1" as="geometry" />
        </mxCell>
        <mxCell id="a7GYGJ2djlalggjTifqG-7" value="middleware&lt;br&gt;method" style="rounded=1;whiteSpace=wrap;html=1;" parent="1" vertex="1">
          <mxGeometry x="718" y="440" width="100" height="59" as="geometry" />
        </mxCell>
        <mxCell id="a7GYGJ2djlalggjTifqG-8" value="middleware&lt;br&gt;method" style="rounded=1;whiteSpace=wrap;html=1;" parent="1" vertex="1">
          <mxGeometry x="934" y="440" width="100" height="59" as="geometry" />
        </mxCell>
        <mxCell id="a7GYGJ2djlalggjTifqG-9" value="res&lt;br&gt;send(), json()" style="endArrow=classic;html=1;exitX=0.75;exitY=1;exitDx=0;exitDy=0;" parent="1" source="a7GYGJ2djlalggjTifqG-3" edge="1">
          <mxGeometry width="50" height="50" relative="1" as="geometry">
            <mxPoint x="166" y="570" as="sourcePoint" />
            <mxPoint x="351.5" y="600" as="targetPoint" />
          </mxGeometry>
        </mxCell>
        <mxCell id="a7GYGJ2djlalggjTifqG-10" value="res&lt;br&gt;send(), json()" style="endArrow=classic;html=1;exitX=0.75;exitY=1;exitDx=0;exitDy=0;" parent="1" source="a7GYGJ2djlalggjTifqG-5" edge="1">
          <mxGeometry width="50" height="50" relative="1" as="geometry">
            <mxPoint x="361" y="510" as="sourcePoint" />
            <mxPoint x="566.5" y="600" as="targetPoint" />
          </mxGeometry>
        </mxCell>
        <mxCell id="a7GYGJ2djlalggjTifqG-11" value="res&lt;br&gt;send(), json()" style="endArrow=classic;html=1;exitX=0.75;exitY=1;exitDx=0;exitDy=0;" parent="1" source="a7GYGJ2djlalggjTifqG-7" edge="1">
          <mxGeometry width="50" height="50" relative="1" as="geometry">
            <mxPoint x="371" y="520" as="sourcePoint" />
            <mxPoint x="792.5" y="600" as="targetPoint" />
          </mxGeometry>
        </mxCell>
        <mxCell id="a7GYGJ2djlalggjTifqG-12" value="res&lt;br&gt;send(), json()" style="endArrow=classic;html=1;exitX=0.75;exitY=1;exitDx=0;exitDy=0;" parent="1" source="a7GYGJ2djlalggjTifqG-8" edge="1">
          <mxGeometry width="50" height="50" relative="1" as="geometry">
            <mxPoint x="381" y="530" as="sourcePoint" />
            <mxPoint x="1008.265625" y="594" as="targetPoint" />
          </mxGeometry>
        </mxCell>
        <mxCell id="a7GYGJ2djlalggjTifqG-13" value="Internet" style="shadow=0;dashed=0;html=1;strokeColor=none;shape=mxgraph.mscae.enterprise.internet;fillColor=#00188D;align=center;labelPosition=center;verticalLabelPosition=bottom;verticalAlign=top;" parent="1" vertex="1">
          <mxGeometry x="66" y="440.00000000000006" width="108" height="67" as="geometry" />
        </mxCell>
        <mxCell id="a7GYGJ2djlalggjTifqG-14" value="URL:" style="whiteSpace=wrap;html=1;aspect=fixed;align=left;" parent="1" vertex="1">
          <mxGeometry x="294" y="370" width="56" height="55" as="geometry" />
        </mxCell>
        <mxCell id="a7GYGJ2djlalggjTifqG-15" value="METHOD:&lt;br&gt;URL:" style="whiteSpace=wrap;html=1;aspect=fixed;align=left;" parent="1" vertex="1">
          <mxGeometry x="514" y="370" width="56" height="55" as="geometry" />
        </mxCell>
        <mxCell id="a7GYGJ2djlalggjTifqG-16" value="METHOD:&lt;br&gt;URL:" style="whiteSpace=wrap;html=1;aspect=fixed;align=left;" parent="1" vertex="1">
          <mxGeometry x="740" y="370" width="56" height="55" as="geometry" />
        </mxCell>
        <mxCell id="a7GYGJ2djlalggjTifqG-17" value="METHOD:&lt;br&gt;URL:" style="whiteSpace=wrap;html=1;aspect=fixed;align=left;" parent="1" vertex="1">
          <mxGeometry x="956" y="372" width="56" height="55" as="geometry" />
        </mxCell>
        <mxCell id="a7GYGJ2djlalggjTifqG-18" value="" style="endArrow=classic;html=1;exitX=0.75;exitY=1;exitDx=0;exitDy=0;" parent="1" source="a7GYGJ2djlalggjTifqG-8" target="a7GYGJ2djlalggjTifqG-13" edge="1">
          <mxGeometry width="50" height="50" relative="1" as="geometry">
            <mxPoint x="1012.5" y="590" as="sourcePoint" />
            <mxPoint x="142.5" y="700" as="targetPoint" />
            <Array as="points">
              <mxPoint x="1009.5" y="600" />
              <mxPoint x="120.5" y="600" />
            </Array>
          </mxGeometry>
        </mxCell>
      </root>
    </mxGraphModel>
  </diagram>
</mxfile>
